<svg width="21" height="16" fill="none" xmlns="http://www.w3.org/2000/svg"><path fill="#fff" d="M0 .756h21v15H0z"/><path stroke="#fff" d="M0 .756h21v15H0z"/><path fill="#69013B" d="M2 2.756h1.957v2H2zm2.957 0h1.957v2H4.957zm2.956 0H9.87v2H7.913zm2.957 0h1.957v2H10.87zm2.957 0h1.957v2h-1.957zm2.957 0h1.957v2h-1.957zM2 5.756h1.957v2H2zm2.957 0h1.957v2H4.957zm2.956 0H9.87v2H7.913zm2.957 0h1.957v2H10.87zm2.957 0h1.957v2h-1.957zm2.957 0h1.957v2h-1.957zM2 8.756h1.957v2H2zm2.957 0h1.957v2H4.957zm2.956 0H9.87v2H7.913zm2.957 0h1.957v2H10.87zm2.957 0h1.957v2h-1.957zm2.957 0h1.957v2h-1.957zM2 11.756h1.957v2H2zm2.957 0h1.957v2H4.957zm2.956 0H9.87v2H7.913zm2.957 0h1.957v2H10.87zm2.957 0h1.957v2h-1.957zm2.957 0h1.957v2h-1.957z"/></svg>